<svg width="802" height="126" viewBox="0 0 802 126" fill="none" xmlns="http://www.w3.org/2000/svg">
<rect x="266.925" y="14.0195" width="64.1516" height="64.8489" transform="rotate(-2.80605 266.925 14.0195)" fill="#FFC3C8"/>
<rect x="180.459" y="32.6074" width="64.1516" height="64.1516" fill="#5ACCCC"/>
<rect x="202.41" y="28.3114" width="20.2086" height="8.08342" transform="rotate(0.488452 202.41 28.3114)" fill="#BB9FC6" fill-opacity="0.75"/>
<rect x="88.2617" y="9.17432" width="64.8489" height="64.8489" transform="rotate(-4.64198 88.2617 9.17432)" fill="#FF876A"/>
<rect x="100.373" y="4.23901" width="20.2086" height="8.08342" transform="rotate(-4.15353 100.373 4.23901)" fill="#D0DFC0"/>
<rect x="454.971" y="31.9087" width="64.1516" height="64.8489" transform="rotate(1.60904 454.971 31.9087)" fill="#81C7DF"/>
<rect x="467.287" y="27.7668" width="20.2086" height="8.08342" transform="rotate(5.70735 467.287 27.7668)" fill="#FFC3C8"/>
<rect x="542.641" y="22.0839" width="64.1516" height="64.1516" transform="rotate(-6.05708 542.641 22.0839)" fill="#ABD3BA"/>
<rect x="559.267" y="9.80151" width="20.2086" height="8.08342" transform="rotate(80.1945 559.267 9.80151)" fill="#FFC3C8"/>
<rect x="639.576" y="49.5032" width="64.8489" height="64.8489" transform="rotate(3.20987 639.576 49.5032)" fill="#FFEECC"/>
<rect x="697.502" y="46.387" width="20.2086" height="8.08342" transform="rotate(56.797 697.502 46.387)" fill="#FBD8B6"/>
<rect x="646.1" y="108.083" width="20.2086" height="8.08342" transform="rotate(22.7169 646.1 108.083)" fill="#FBD8B6"/>
<rect x="732.076" y="27.7823" width="64.8489" height="64.1516" transform="rotate(-3.8755 732.076 27.7823)" fill="#FBD8B6"/>
<rect x="764.136" y="21.417" width="20.2085" height="8.08342" transform="rotate(-1.45142 764.136 21.417)" fill="#ABD3BA"/>
<rect x="0.725098" y="38.4078" width="64.8489" height="64.1516" fill="#BB9FC6"/>
<rect x="0.961914" y="47.6727" width="9.59906" height="64.6674" transform="rotate(-90 0.961914 47.6727)" fill="#A47FB3"/>
<circle cx="17.1288" cy="42.6206" r="2.02086" transform="rotate(-90 17.1288 42.6206)" fill="#FAFAFA"/>
<circle cx="57.5458" cy="42.6206" r="2.02086" transform="rotate(-90 57.5458 42.6206)" fill="#FAFAFA"/>
<circle cx="37.337" cy="42.6206" r="2.02086" transform="rotate(-90 37.337 42.6206)" fill="#FAFAFA"/>
<circle cx="7.02427" cy="42.6206" r="2.02086" transform="rotate(-90 7.02427 42.6206)" fill="#FAFAFA"/>
<circle cx="27.233" cy="42.6206" r="2.02086" transform="rotate(-90 27.233 42.6206)" fill="#FAFAFA"/>
<circle cx="47.4415" cy="42.6206" r="2.02086" transform="rotate(-90 47.4415 42.6206)" fill="#FAFAFA"/>
<rect x="366.816" y="38.3391" width="64.8489" height="64.8489" transform="rotate(9.16406 366.816 38.3391)" fill="#FE657F"/>
<rect x="366.266" y="103.786" width="9.59906" height="64.6674" transform="rotate(-170.836 366.266 103.786)" fill="#EB4763"/>
<circle cx="363.853" cy="87.0207" r="2.02086" transform="rotate(-170.836 363.853 87.0207)" fill="#FAFAFA"/>
<circle cx="370.29" cy="47.1196" r="2.02086" transform="rotate(-170.836 370.29 47.1196)" fill="#FAFAFA"/>
<circle cx="367.072" cy="67.0702" r="2.02086" transform="rotate(-170.836 367.072 67.0702)" fill="#FAFAFA"/>
<circle cx="362.244" cy="96.9961" r="2.02086" transform="rotate(-170.836 362.244 96.9961)" fill="#FAFAFA"/>
<circle cx="365.463" cy="77.0455" r="2.02086" transform="rotate(-170.836 365.463 77.0455)" fill="#FAFAFA"/>
<circle cx="368.681" cy="57.0948" r="2.02086" transform="rotate(-170.836 368.681 57.0948)" fill="#FAFAFA"/>
</svg>
