<svg width="16" height="16" viewBox="0 0 16 16" fill="none" xmlns="http://www.w3.org/2000/svg">
<path d="M5.71428 13.9886L0.571426 15.4286L2.01143 10.2857L11.4286 0.914292C11.535 0.80544 11.6621 0.71895 11.8024 0.659901C11.9428 0.600852 12.0935 0.570435 12.2457 0.570435C12.398 0.570435 12.5487 0.600852 12.689 0.659901C12.8293 0.71895 12.9564 0.80544 13.0629 0.914292L15.0857 2.94858C15.1928 3.05482 15.2779 3.18122 15.3359 3.32049C15.3939 3.45976 15.4238 3.60914 15.4238 3.76001C15.4238 3.91088 15.3939 4.06026 15.3359 4.19952C15.2779 4.33879 15.1928 4.46519 15.0857 4.57144L5.71428 13.9886Z" stroke="#262626" stroke-linecap="round" stroke-linejoin="round"/>
</svg>
