<svg width="17" height="18" viewBox="0 0 17 18" fill="none" xmlns="http://www.w3.org/2000/svg">
<path d="M15.993 5.3765C15.9492 4.69929 15.7122 4.08057 15.3393 3.57056" stroke="#262626" stroke-linecap="round" stroke-linejoin="round"/>
<path d="M4.46455 2.53428C4.84108 1.96969 5.35565 1.55234 5.93362 1.29712" stroke="#262626" stroke-linecap="round" stroke-linejoin="round"/>
<path d="M4.16698 15.0441L3.60945 14.4097C3.12945 13.8635 2.75273 13.2346 2.49765 12.5537L1.5984 10.1532C1.39461 9.6092 1.56663 8.99584 2.02361 8.63713V8.63713C2.70903 8.09911 3.71789 8.35263 4.06755 9.15076L4.76266 10.7374C5.28355 10.877 6.47786 11.4203 7.08796 12.4771" stroke="#262626" stroke-linecap="round" stroke-linejoin="round"/>
<path d="M4.76301 10.7393L6.50765 4.22817C6.70036 3.50898 7.43961 3.08217 8.15881 3.27488V3.27488C8.878 3.46759 9.30481 4.20683 9.1121 4.92603L8.06531 8.8327L9.53082 3.36336C9.72352 2.64417 10.4628 2.21736 11.182 2.41007V2.41007C11.9012 2.60278 12.328 3.34202 12.1353 4.06122L10.5302 10.0515L11.4374 6.66567C11.6301 5.94647 12.3694 5.51967 13.0886 5.71238V5.71238C13.8078 5.90509 14.2346 6.64433 14.0418 7.36353L11.9533 15.158C11.816 15.6704 11.4808 16.1072 11.0215 16.3724L10.418 16.7208" stroke="#262626" stroke-linecap="round" stroke-linejoin="round"/>
</svg>
