<svg width="30" height="32" viewBox="0 0 30 32" fill="none" xmlns="http://www.w3.org/2000/svg">
<g clip-path="url(#clip0_152_2)">
<path d="M6.93332 14.3109C10.1734 14.3109 12.8 11.6843 12.8 8.44424C12.8 5.20418 10.1734 2.57758 6.93332 2.57758C3.69325 2.57758 1.06665 5.20418 1.06665 8.44424C1.06665 11.6843 3.69325 14.3109 6.93332 14.3109Z" stroke="#262626" stroke-linecap="round" stroke-linejoin="round"/>
<path d="M22.9333 14.3109C26.1734 14.3109 28.8 11.6843 28.8 8.44424C28.8 5.20418 26.1734 2.57758 22.9333 2.57758C19.6933 2.57758 17.0667 5.20418 17.0667 8.44424C17.0667 11.6843 19.6933 14.3109 22.9333 14.3109Z" stroke="#262626" stroke-linecap="round" stroke-linejoin="round"/>
<path d="M6.93332 30.311C10.1734 30.311 12.8 27.6842 12.8 24.4443C12.8 21.2042 10.1734 18.5776 6.93332 18.5776C3.69325 18.5776 1.06665 21.2042 1.06665 24.4443C1.06665 27.6842 3.69325 30.311 6.93332 30.311Z" stroke="#262626" stroke-linecap="round" stroke-linejoin="round"/>
<path d="M22.9333 30.311C26.1734 30.311 28.8 27.6842 28.8 24.4443C28.8 21.2042 26.1734 18.5776 22.9333 18.5776C19.6933 18.5776 17.0667 21.2042 17.0667 24.4443C17.0667 27.6842 19.6933 30.311 22.9333 30.311Z" stroke="#262626" stroke-linecap="round" stroke-linejoin="round"/>
</g>
<defs>
<clipPath id="clip0_152_2">
<rect width="29.8667" height="32" fill="white"/>
</clipPath>
</defs>
</svg>
