<svg width="17" height="18" viewBox="0 0 17 18" fill="none" xmlns="http://www.w3.org/2000/svg">
<g clip-path="url(#clip0_124_2)">
<path d="M0.86281 12.119L5.53081 16.787C5.69957 16.9556 5.92831 17.0503 6.16681 17.0503C6.40531 17.0503 6.63407 16.9556 6.80281 16.787L16.0668 7.52306C16.1134 7.47857 16.1494 7.42422 16.1722 7.36402C16.1951 7.3038 16.2041 7.23924 16.1988 7.17506L15.4908 2.57907C15.485 2.46955 15.439 2.36604 15.3614 2.2885C15.2838 2.21094 15.1804 2.16484 15.0708 2.15907L10.4748 1.45107C10.4106 1.44574 10.3461 1.45483 10.2859 1.47767C10.2257 1.50051 10.1713 1.53652 10.1268 1.58307L0.86281 10.8471C0.69427 11.0158 0.599602 11.2446 0.599602 11.4831C0.599602 11.7216 0.69427 11.9503 0.86281 12.119Z" stroke="white" stroke-linecap="round" stroke-linejoin="round"/>
<path d="M11.8668 6.38311C11.5355 6.38311 11.2668 6.11449 11.2668 5.78311C11.2668 5.45174 11.5355 5.18311 11.8668 5.18311C12.1982 5.18311 12.4668 5.45174 12.4668 5.78311C12.4668 6.11449 12.1982 6.38311 11.8668 6.38311Z" stroke="white" stroke-linecap="round" stroke-linejoin="round"/>
</g>
<defs>
<clipPath id="clip0_124_2">
<rect width="16.8" height="18" fill="white"/>
</clipPath>
</defs>
</svg>
