<svg width="15" height="16" viewBox="0 0 15 16" fill="none" xmlns="http://www.w3.org/2000/svg">
<g clip-path="url(#clip0_155_6)">
<path d="M7.46672 9.28878C8.93947 9.28878 10.1334 8.09487 10.1334 6.62211C10.1334 5.14935 8.93947 3.95544 7.46672 3.95544C5.99396 3.95544 4.80005 5.14935 4.80005 6.62211C4.80005 8.09487 5.99396 9.28878 7.46672 9.28878Z" stroke="#262626" stroke-linecap="round" stroke-linejoin="round"/>
<path d="M2.91199 13.4488C3.38798 12.6674 4.05696 12.0218 4.85461 11.5737C5.65226 11.1256 6.55176 10.8903 7.46665 10.8903C8.38154 10.8903 9.28104 11.1256 10.0787 11.5737C10.8764 12.0218 11.5453 12.6674 12.0213 13.4488" stroke="#262626" stroke-linecap="round" stroke-linejoin="round"/>
<path d="M7.46666 15.1555C11.2959 15.1555 14.4 12.0513 14.4 8.22215C14.4 4.39298 11.2959 1.28882 7.46666 1.28882C3.63749 1.28882 0.533325 4.39298 0.533325 8.22215C0.533325 12.0513 3.63749 15.1555 7.46666 15.1555Z" stroke="#262626" stroke-linecap="round" stroke-linejoin="round"/>
</g>
<defs>
<clipPath id="clip0_155_6">
<rect width="14.9333" height="16" fill="white"/>
</clipPath>
</defs>
</svg>
