<svg width="32" height="32" viewBox="0 0 32 32" fill="none" xmlns="http://www.w3.org/2000/svg">
<rect width="32" height="32" fill="#C1BEFA"/>
<path d="M22.5712 12.432C22.5712 13.328 22.3552 14.168 21.9232 14.952C21.5072 15.736 20.8432 16.368 19.9312 16.848C19.0352 17.328 17.8992 17.568 16.5232 17.568H13.7152V24H10.3552V7.248H16.5232C17.8192 7.248 18.9232 7.472 19.8352 7.92C20.7472 8.368 21.4272 8.984 21.8752 9.768C22.3392 10.552 22.5712 11.44 22.5712 12.432ZM16.3792 14.856C17.3072 14.856 17.9952 14.648 18.4432 14.232C18.8912 13.8 19.1152 13.2 19.1152 12.432C19.1152 10.8 18.2032 9.984 16.3792 9.984H13.7152V14.856H16.3792Z" fill="#262626"/>
</svg>
